# xmcd CD database file
#
# Track frame offsets:
#	150
#	12274
#	23536
#	33918
#	52050
#	64426
#	80940
#	94464
#	107553
#	119779
#	133073
#	148054
#	165744
#	178120
#	191826
#
# Disc length: 2701 seconds
#
# Revision: 0
# Processed by: cddbd v1.5.2PL0 Copyright (c) Steve Scherf et al.
# Submitted via: CDex 1.51
#
DISCID=e30a8b0f
DTITLE=Sarah Gayle Meech - Tennessee Love Song
DYEAR=2015
DGENRE=Country
TTITLE0=Stormy Weather
TTITLE1=Love Of Mine
TTITLE2=Watermelon And Root Beer
TTITLE3=Tennessee Love Song
TTITLE4=True Love
TTITLE5=At The Bar Again
TTITLE6=Gonna Break
TTITLE7=Get It Over
TTITLE8=Rain Song
TTITLE9=No Mess
TTITLE10=Nothing's Got A Hold On Me
TTITLE11=The Lonliest Place In Town
TTITLE12=Somebody's Gonna Cry
TTITLE13=Little Black Hole
TTITLE14=Stay Gold
EXTD=YEAR: 2015
EXTT0=
EXTT1=
EXTT2=
EXTT3=
EXTT4=
EXTT5=
EXTT6=
EXTT7=
EXTT8=
EXTT9=
EXTT10=
EXTT11=
EXTT12=
EXTT13=
EXTT14=
PLAYORDER=
